<svg width="95" height="94" viewBox="0 0 95 94" fill="none" xmlns="http://www.w3.org/2000/svg">
<path d="M85.632 93.28C85.376 93.28 84.992 93.184 84.48 92.992C67.968 87.104 56.352 76.992 49.632 62.656C49.184 61.76 48.8 60.832 48.48 59.872C48.16 58.912 47.84 58.016 47.52 57.184C46.112 57.312 44.736 57.44 43.392 57.568C42.048 57.632 40.704 57.664 39.36 57.664H36.96C33.12 71.616 27.456 80.032 19.968 82.912C18.624 83.424 17.216 83.84 15.744 84.16C14.272 84.48 12.704 84.64 11.04 84.64H10.752C8.384 84.64 7.2 83.68 7.2 81.76C7.2 80.224 7.68 79.456 8.64 79.456C8.768 79.456 9.6 80.032 11.136 81.184C12.672 82.336 14.176 82.912 15.648 82.912C21.6 82.912 27.296 74.368 32.736 57.28L28.992 56.704C25.792 66.816 22.624 73.632 19.488 77.152C19.168 77.472 18.88 77.632 18.624 77.632C18.432 77.632 18.336 77.472 18.336 77.152C18.336 76.896 18.464 76.608 18.72 76.288C20.192 74.56 21.664 72.032 23.136 68.704C24.608 65.376 26.048 61.248 27.456 56.32C22.848 55.04 19.488 53.088 17.376 50.464C16.032 48.608 15.36 46.624 15.36 44.512C15.36 42.016 16.608 39.328 19.104 36.448C21.6 33.568 23.872 32.128 25.92 32.128C26.368 32.128 26.624 32.224 26.688 32.416C26.624 32.416 26.56 32.448 26.496 32.512C21.12 35.072 18.432 38.24 18.432 42.016C18.432 43.936 19.072 45.824 20.352 47.68C22.016 50.176 24.64 52.224 28.224 53.824C28.736 51.904 29.216 49.984 29.664 48.064C30.112 46.08 30.56 44.096 31.008 42.112C30.624 42.496 30.144 42.912 29.568 43.36C29.056 43.808 28.448 44.288 27.744 44.8C26.592 44.032 26.016 42.848 26.016 41.248C26.016 40.608 26.368 39.808 27.072 38.848C27.776 37.824 28.384 37.312 28.896 37.312C29.472 39.424 30.272 40.608 31.296 40.864C31.616 39.584 31.872 38.368 32.064 37.216C32.32 36 32.512 34.912 32.64 33.952C33.024 31.072 33.312 28.384 33.504 25.888C33.76 23.392 33.888 21.056 33.888 18.88C33.888 17.984 33.856 17.12 33.792 16.288C33.792 15.456 33.76 14.656 33.696 13.888C30.496 15.232 27.904 16.288 25.92 17.056C23.936 17.824 22.592 18.336 21.888 18.592C17.472 20.128 13.6 20.896 10.272 20.896C7.648 20.896 5.344 20.128 3.36 18.592C1.44 16.992 0.48 14.912 0.48 12.352C0.48 11.136 0.672 9.92 1.056 8.704C1.504 7.424 2.112 6.112 2.88 4.768C3.2 4.32 3.52 4.096 3.84 4.096C4.096 4.096 4.224 4.256 4.224 4.576C4.224 4.576 3.776 5.408 2.88 7.07199C2.432 7.776 2.112 8.512 1.92 9.27999C1.792 9.984 1.728 10.688 1.728 11.392C1.728 15.168 4.032 17.056 8.64 17.056C10.112 17.056 11.872 16.896 13.92 16.576C16.032 16.256 18.4 15.68 21.024 14.848L33.216 10.912C32.064 4.32 29.248 1.024 24.768 1.024C24.512 1.024 24.256 1.024 24 1.024C23.808 1.024 23.584 1.056 23.328 1.12C25.056 1.888 25.92 3.264 25.92 5.248C25.92 7.104 25.344 8.32 24.192 8.89599C23.616 5.05599 21.696 3.26399 18.432 3.51999C19.456 1.216 21.6 0.0639992 24.864 0.0639992C30.048 0.0639992 33.44 3.52 35.04 10.432C41.568 8.512 47.2 7.55199 51.936 7.55199C52.192 7.55199 52.448 7.55199 52.704 7.55199C53.024 7.55199 53.312 7.584 53.568 7.648C57.536 4.064 61.248 2.272 64.704 2.272C66.24 2.272 67.808 2.848 69.408 3.99999C71.008 4.96 71.808 6.208 71.808 7.744C71.808 8.896 71.52 9.472 70.944 9.472C70.816 9.472 69.984 8.544 68.448 6.68799C67.04 4.832 65.28 3.904 63.168 3.904C60.416 3.904 57.792 5.184 55.296 7.744C62.464 8.192 68.352 10.112 72.96 13.504C78.4 17.536 81.12 22.944 81.12 29.728C81.12 33.504 80 37.248 77.76 40.96C72.896 49.024 64.32 54.208 52.032 56.512C53.312 60.096 55.168 63.616 57.6 67.072C60.096 70.464 63.136 73.792 66.72 77.056C74.144 83.776 80.896 87.136 86.976 87.136C91.456 87.136 93.696 85.312 93.696 81.664C93.696 81.28 93.6 80.736 93.408 80.032C93.28 79.328 93.216 78.848 93.216 78.592C93.216 78.4 93.28 78.304 93.408 78.304C93.92 78.304 94.272 78.976 94.464 80.32C94.592 80.832 94.688 81.28 94.752 81.664C94.88 82.112 94.944 82.496 94.944 82.816C94.944 86.592 92.672 88.48 88.128 88.48H87.456C87.264 88.416 87.04 88.384 86.784 88.384C85.696 88.384 85.152 88.768 85.152 89.536C85.152 89.92 85.312 90.496 85.632 91.264C85.952 92.032 86.112 92.544 86.112 92.8C86.112 93.12 85.952 93.28 85.632 93.28ZM33.216 55.36C33.92 53.12 34.592 50.72 35.232 48.16C35.936 45.6 36.608 42.848 37.248 39.904C40.448 26.336 45.408 16.032 52.128 8.992C49.952 9.056 47.456 9.44 44.64 10.144C41.888 10.848 38.848 11.84 35.52 13.12C35.648 14.144 35.744 15.168 35.808 16.192C35.872 17.216 35.904 18.336 35.904 19.552C35.904 21.984 35.744 24.64 35.424 27.52C35.168 30.4 34.72 33.44 34.08 36.64C33.568 39.392 32.96 42.24 32.256 45.184C31.552 48.128 30.688 51.232 29.664 54.496L33.216 55.36ZM40.8 56.224C41.888 56.224 42.944 56.192 43.968 56.128C45.056 56.064 46.112 55.968 47.136 55.84C46.752 54.304 46.56 52.864 46.56 51.52C46.56 51.008 46.624 50.432 46.752 49.792C46.944 48.96 47.488 47.84 48.384 46.432C49.344 44.96 50.176 44.224 50.88 44.224C51.264 44.224 51.552 44.48 51.744 44.992C51.04 46.4 50.688 47.936 50.688 49.6C50.688 50.432 50.752 51.328 50.88 52.288C51.072 53.184 51.328 54.112 51.648 55.072C61.952 52.96 69.216 48 73.44 40.192C75.36 36.736 76.32 33.184 76.32 29.536C76.32 23.2 74.112 18.176 69.696 14.464C65.664 11.008 60.448 9.184 54.048 8.992C50.72 13.216 47.424 20.576 44.16 31.072C43.904 31.84 43.2 34.304 42.048 38.464C40.96 42.624 39.424 48.48 37.44 56.032C38.016 56.096 38.592 56.16 39.168 56.224C39.744 56.224 40.288 56.224 40.8 56.224Z" fill="black"/>
</svg>
